<?xml version="1.0" encoding="UTF-8" standalone="no"?>
<!-- Created with Inkscape (http://www.inkscape.org/) -->

<svg
   version="1.1"
   id="svg2"
   xml:space="preserve"
   width="959.7124"
   height="412.68533"
   viewBox="0 0 959.71236 412.68533"
   xmlns="http://www.w3.org/2000/svg"
   xmlns:svg="http://www.w3.org/2000/svg"><defs
     id="defs6"><clipPath
       clipPathUnits="userSpaceOnUse"
       id="clipPath20"><path
         d="m 5611,3356.15 -171.8,309.2 -171.81,-309.2 -243.52,-438.36 h 719.47 111.22 l -55.63,100.13 z m -601.07,425.53 h 364.61 l -182.28,328.12 -359.74,647.43 -542.07,-975.55 -55.75,-100.42 -180.65,-325.11 -179.08,-322.32 -64.49,-116.04 h 128.93 590.54 l 64.46,116.04 179.07,322.32 z M 3238.74,4131.63 2564.33,2917.79 h 719.49 l 314.67,566.41 165.29,297.48 h 388.88 l -194.44,349.95 -359.73,647.47 z"
         clip-rule="evenodd"
         id="path18" /></clipPath><linearGradient
       x1="-163.787"
       y1="0"
       x2="163.787"
       y2="0"
       gradientUnits="userSpaceOnUse"
       gradientTransform="matrix(0.0942465,9.99956,-9.99956,0.0942465,4112.48,4154.07)"
       id="linearGradient26"><stop
         style="stop-opacity:1;stop-color:#3cabd7"
         offset="0"
         id="stop22" /><stop
         style="stop-opacity:1;stop-color:#57c8e9"
         offset="1"
         id="stop24" /></linearGradient></defs><g
     id="g8"
     transform="matrix(1.3333333,0,0,-1.3333333,-81.403598,637.21332)"><g
       id="g10"
       transform="scale(0.1)"><g
         id="g14"><g
           id="g16"
           clip-path="url(#clipPath20)"><path
             d="m 5611,3356.15 -171.8,309.2 -171.81,-309.2 -243.52,-438.36 h 719.47 111.22 l -55.63,100.13 z m -601.07,425.53 h 364.61 l -182.28,328.12 -359.74,647.43 -542.07,-975.55 -55.75,-100.42 -180.65,-325.11 -179.08,-322.32 -64.49,-116.04 h 128.93 590.54 l 64.46,116.04 179.07,322.32 z M 3238.74,4131.63 2564.33,2917.79 h 719.49 l 314.67,566.41 165.29,297.48 h 388.88 l -194.44,349.95 -359.73,647.47 -359.75,-647.47"
             style="fill:url(#linearGradient26);fill-opacity:1;fill-rule:nonzero;stroke:none"
             id="path28" /></g></g><path
         d="m 610.527,2468.5 h 182.918 l 202.739,-326.17 202.746,326.17 h 182.92 v -771.32 h -168.59 v 503.56 L 996.184,1871.27 h -4.403 L 776.918,2197.43 V 1697.18 H 610.527 Z M 1784.39,1801.85 c 39.67,0 71.45,9.55 95.32,28.66 23.88,19.09 35.82,44.07 35.82,74.92 v 29.75 c -14.7,6.61 -31.04,11.94 -49.04,15.98 -18.01,4.04 -37.28,6.05 -57.85,6.05 -36,0 -64.28,-6.97 -84.84,-20.92 -20.58,-13.96 -30.85,-34.16 -30.85,-60.61 v -2.2 c 0,-22.77 8.44,-40.41 25.33,-52.89 16.91,-12.49 38.93,-18.74 66.11,-18.74 z m -50.68,-115.69 c -27.91,0 -54.17,3.86 -78.78,11.56 -24.61,7.72 -46.1,19.29 -64.47,34.71 -18.35,15.44 -32.87,34.35 -43.51,56.76 -10.66,22.4 -15.99,48.29 -15.99,77.68 v 2.2 c 0,32.33 5.89,60.24 17.64,83.75 11.75,23.5 28.1,42.97 49.03,58.39 20.94,15.43 45.91,26.99 74.93,34.71 29.01,7.72 61.15,11.57 96.41,11.57 30.12,0 56.38,-2.2 78.79,-6.61 22.4,-4.41 44.26,-10.28 65.55,-17.63 v 9.91 c 0,35.27 -10.64,62.08 -31.95,80.44 -21.3,18.37 -52.89,27.56 -94.75,27.56 -32.33,0 -60.79,-2.77 -85.41,-8.27 -24.61,-5.51 -50.5,-13.4 -77.68,-23.7 l -41.86,127.83 c 32.31,13.95 66.11,25.34 101.37,34.16 35.25,8.81 77.86,13.23 127.81,13.23 46.28,0 85.77,-5.71 118.45,-17.09 32.69,-11.39 59.69,-27.74 80.99,-49.04 22.03,-22.03 38.2,-49.03 48.5,-80.99 10.27,-31.95 15.42,-67.77 15.42,-107.43 v -342.68 h -161.98 v 63.91 c -20.58,-22.77 -45.18,-40.96 -73.83,-54.54 -28.64,-13.6 -63.54,-20.39 -104.68,-20.39 z m 501.72,601.63 h 167.49 v -119.01 c 16.9,40.4 40.03,72.72 69.42,96.97 29.39,24.24 69.05,35.27 119,33.05 v -175.2 h -8.82 c -55.82,0 -99.71,-16.89 -131.67,-50.69 -31.96,-33.78 -47.93,-86.31 -47.93,-157.56 v -218.17 h -167.49 z m 477.48,213.76 h 167.5 v -428.64 l 196.12,214.88 h 200.56 l -224.79,-232.5 232.5,-358.11 h -191.74 l -154.26,241.31 -58.39,-61.7 v -179.61 h -167.5 z m 1057.07,-462.78 c -5.13,37.45 -18.36,67.76 -39.66,90.9 -21.31,23.14 -49.59,34.71 -84.84,34.71 -35.27,0 -63.73,-11.39 -85.4,-34.17 -21.67,-22.77 -35.81,-53.25 -42.43,-91.44 z m -107.97,-354.81 c -44.08,0 -85.04,7.33 -122.87,22.03 -37.82,14.69 -70.51,35.63 -98.07,62.81 -27.54,27.18 -49.03,59.32 -64.45,96.42 -15.42,37.09 -23.14,78.41 -23.14,123.96 v 2.2 c 0,41.87 7.15,81.53 21.48,119 14.33,37.47 34.35,70.16 60.05,98.07 25.72,27.91 56.39,49.96 92.01,66.12 35.64,16.15 75.12,24.23 118.46,24.23 49.22,0 91.81,-8.81 127.81,-26.44 36,-17.62 65.93,-41.32 89.81,-71.07 23.87,-29.75 41.51,-63.91 52.89,-102.48 11.39,-38.56 17.08,-78.79 17.08,-120.65 0,-6.62 -0.18,-13.59 -0.55,-20.95 -0.38,-7.33 -0.93,-15.05 -1.65,-23.13 h -411.01 c 8.09,-38.2 24.8,-67.03 50.14,-86.5 25.34,-19.46 56.74,-29.2 94.2,-29.2 27.92,0 52.9,4.78 74.93,14.33 22.05,9.55 44.82,24.97 68.32,46.28 l 95.87,-84.84 c -27.92,-34.53 -61.71,-61.53 -101.39,-80.99 -39.66,-19.47 -86.3,-29.2 -139.92,-29.2 z m 611.9,3.3 c -25.7,0 -49.03,2.76 -69.96,8.26 -20.94,5.51 -38.94,15.24 -54,29.21 -15.06,13.95 -26.81,32.13 -35.25,54.54 -8.45,22.4 -12.68,50.86 -12.68,85.39 v 279.88 h -70.52 v 143.25 h 70.52 v 150.96 h 167.48 v -150.96 h 138.84 V 2144.54 H 4269.5 v -252.33 c 0,-38.2 18,-57.3 54,-57.3 29.39,0 56.93,6.98 82.64,20.94 v -134.43 c -17.64,-10.29 -37.09,-18.56 -58.4,-24.79 -21.3,-6.25 -45.91,-9.37 -73.83,-9.37 z m 573.35,-1.1 c -61.7,0 -118.08,10.09 -169.13,30.3 -51.06,20.2 -99.74,51.24 -146.01,93.11 l 53.99,63.91 c 40.4,-36.74 81.18,-64.09 122.31,-82.09 41.14,-18 88.53,-26.99 142.14,-26.99 52.17,0 93.85,12.3 125.07,36.9 31.23,24.62 46.83,56.02 46.83,94.22 v 2.19 c 0,17.64 -2.94,33.62 -8.81,47.94 -5.88,14.32 -16.17,27.37 -30.86,39.12 -14.69,11.75 -35.08,22.41 -61.16,31.95 -26.08,9.55 -59.31,18.74 -99.71,27.55 -44.08,9.55 -82.46,20.57 -115.15,33.06 -32.69,12.49 -59.68,27.55 -80.99,45.17 -21.3,17.63 -37.09,38.21 -47.39,61.71 -10.27,23.5 -15.41,51.06 -15.41,82.64 v 2.2 c 0,30.12 6.24,58.03 18.72,83.75 12.5,25.7 30.13,47.93 52.89,66.66 22.78,18.74 49.59,33.42 80.45,44.08 30.85,10.64 64.64,15.98 101.36,15.98 56.57,0 105.98,-7.9 148.21,-23.7 42.25,-15.78 83.2,-39.48 122.87,-71.07 l -50.69,-67.21 c -36,29.38 -72.18,50.68 -108.54,63.91 -36.37,13.22 -74.38,19.83 -114.05,19.83 -50.69,0 -90.72,-11.94 -120.11,-35.8 -29.37,-23.89 -44.06,-53.46 -44.06,-88.71 v -2.2 c 0,-18.37 2.92,-34.72 8.81,-49.03 5.88,-14.33 16.53,-27.56 31.95,-39.67 15.43,-12.14 36.74,-23.15 63.91,-33.06 27.19,-9.92 62.08,-19.29 104.68,-28.1 85.94,-19.1 149.31,-45.55 190.08,-79.33 40.76,-33.81 61.16,-80.08 61.16,-138.84 v -2.21 c 0,-33.06 -6.61,-62.99 -19.84,-89.8 -13.22,-26.81 -31.4,-49.77 -54.54,-68.87 -23.15,-19.1 -50.87,-33.79 -83.2,-44.07 -32.32,-10.3 -67.58,-15.43 -105.78,-15.43 z m 633.95,1.1 c -22.77,0 -44.08,2.94 -63.91,8.81 -19.84,5.88 -36.91,15.25 -51.24,28.1 -14.33,12.86 -25.52,29.57 -33.6,50.14 -8.08,20.57 -12.13,45.17 -12.13,73.82 v 343.78 h -79.34 v 74.94 h 79.34 v 171.9 h 84.85 v -171.9 h 180.71 v -74.94 h -180.71 v -332.76 c 0,-35.26 8.81,-59.86 26.45,-73.83 17.62,-13.95 40.76,-20.92 69.41,-20.92 14.7,0 28.47,1.47 41.33,4.4 12.86,2.93 26.63,8.08 41.32,15.43 v -72.73 c -14.69,-8.07 -30.31,-14.14 -46.84,-18.17 -16.53,-4.05 -35.08,-6.07 -55.64,-6.07 z m 533.67,72.72 c 30.85,0 59.14,5.89 84.84,17.64 25.71,11.75 47.74,27.54 66.11,47.37 18.37,19.83 32.69,42.97 42.99,69.42 10.28,26.45 15.42,54.74 15.42,84.85 v 2.2 c 0,30.86 -5.33,59.68 -15.98,86.5 -10.65,26.82 -25.52,50.32 -44.63,70.52 -19.09,20.2 -41.5,36.18 -67.22,47.93 -25.7,11.75 -53.62,17.64 -83.73,17.64 -30.86,0 -59.14,-5.89 -84.86,-17.64 -25.7,-11.75 -47.55,-27.55 -65.55,-47.38 -18,-19.84 -32.14,-43.16 -42.43,-69.97 -10.28,-26.81 -15.42,-55.27 -15.42,-85.4 v -2.2 c 0,-30.85 5.33,-59.68 15.97,-86.49 10.66,-26.82 25.36,-50.15 44.08,-69.98 18.73,-19.83 40.96,-35.62 66.66,-47.37 25.72,-11.75 53.63,-17.64 83.75,-17.64 z m -2.2,-76.02 c -42.61,0 -81.91,7.9 -117.91,23.68 -35.98,15.8 -67.21,37.11 -93.65,63.91 -26.45,26.81 -47.02,58.04 -61.72,93.67 -14.69,35.62 -22.03,73.63 -22.03,114.04 v 2.2 c 0,40.42 7.34,78.61 22.03,114.59 14.7,36 35.27,67.58 61.72,94.77 26.44,27.18 57.84,48.66 94.21,64.46 36.36,15.79 76.21,23.69 119.55,23.69 42.6,0 82.09,-7.9 118.46,-23.69 36.36,-15.8 67.76,-37.1 94.2,-63.91 26.45,-26.81 47.01,-58.03 61.71,-93.66 14.69,-35.62 22.04,-73.64 22.04,-114.05 v -2.2 c 0,-40.39 -7.54,-78.59 -22.59,-114.59 -15.06,-35.99 -35.82,-67.58 -62.26,-94.77 -26.45,-27.17 -58.03,-48.66 -94.76,-64.46 -36.72,-15.78 -76.39,-23.68 -119,-23.68 z m 468.66,582.89 h 84.85 V 2118.1 c 10.28,23.5 23.14,45.17 38.56,65.01 15.42,19.83 33.06,36.91 52.89,51.23 19.84,14.33 41.5,25.16 65.01,32.51 23.51,7.35 48.85,10.65 76.03,9.92 v -91.47 h -6.61 c -30.85,0 -60.05,-5.5 -87.6,-16.52 -27.54,-11.01 -51.6,-27.54 -72.17,-49.59 -20.57,-22.03 -36.72,-49.39 -48.49,-82.08 -11.75,-32.69 -17.62,-70.34 -17.62,-112.95 v -226.98 h -84.85 z m 463.15,0 h 84.85 v -95.86 c 9.55,13.95 20.02,27.54 31.41,40.76 11.39,13.22 24.43,24.79 39.11,34.71 14.69,9.93 31.21,17.82 49.58,23.7 18.38,5.87 39.67,8.81 63.91,8.81 46.28,0 84.48,-10.83 114.59,-32.51 30.13,-21.67 52.89,-48.66 68.33,-80.99 10.28,15.44 21.85,30.13 34.71,44.08 12.86,13.96 27.36,26.08 43.52,36.36 16.16,10.29 34.34,18.37 54.54,24.25 20.2,5.87 42.79,8.81 67.76,8.81 66.12,0 117.91,-20.38 155.37,-61.15 37.47,-40.78 56.2,-96.78 56.2,-168.05 v -352.59 h -84.84 v 332.76 c 0,55.1 -13.05,97.52 -39.12,127.27 -26.09,29.75 -62.25,44.62 -108.53,44.62 -21.31,0 -41.52,-3.85 -60.61,-11.57 -19.1,-7.7 -35.81,-19.09 -50.13,-34.15 -14.33,-15.06 -25.72,-33.61 -34.16,-55.65 -8.45,-22.03 -12.68,-47 -12.68,-74.92 v -328.36 h -83.75 v 334.97 c 0,53.62 -13.02,95.31 -39.1,125.06 -26.08,29.75 -61.9,44.62 -107.44,44.62 -22.78,0 -43.71,-4.4 -62.8,-13.22 -19.11,-8.81 -35.82,-21.29 -50.15,-37.45 -14.31,-16.17 -25.52,-35.08 -33.6,-56.76 -8.08,-21.67 -12.12,-45.72 -12.12,-72.17 v -325.05 h -84.85 v 569.67"
         style="fill:#000000;fill-opacity:1;fill-rule:nonzero;stroke:none"
         id="path30" /></g></g></svg>
